<?xml version="1.0" encoding="UTF-8" standalone="no"?>
<!DOCTYPE svg PUBLIC "-//W3C//DTD SVG 1.1//EN"
 "http://www.w3.org/Graphics/SVG/1.1/DTD/svg11.dtd">
<!-- Generated by graphviz version 12.1.2 (20240928.0832)
 -->
<!-- Title: public.quotation_edit_locks Pages: 1 -->
<svg width="686pt" height="540pt"
 viewBox="0.00 0.00 686.38 540.40" xmlns="http://www.w3.org/2000/svg" xmlns:xlink="http://www.w3.org/1999/xlink">
<g id="graph0" class="graph" transform="scale(1 1) rotate(0) translate(4 536.4)">
<title>public.quotation_edit_locks</title>
<polygon fill="white" stroke="none" points="-4,4 -4,-536.4 682.38,-536.4 682.38,4 -4,4"/>
<!-- public.quotation_edit_locks -->
<g id="node1" class="node">
<title>public.quotation_edit_locks</title>
<polygon fill="#efefef" stroke="none" points="179.21,-450.6 179.21,-486.2 518.17,-486.2 518.17,-450.6 179.21,-450.6"/>
<polygon fill="none" stroke="black" points="179.21,-450.6 179.21,-486.2 518.17,-486.2 518.17,-450.6 179.21,-450.6"/>
<text text-anchor="start" x="186.21" y="-464" font-family="Arial Bold" font-size="18.00">public.quotation_edit_locks</text>
<text text-anchor="start" x="386.68" y="-464" font-family="Arial" font-size="14.00">    </text>
<text text-anchor="start" x="417.8" y="-464" font-family="Arial" font-size="14.00" fill="#666666">[BASE TABLE]</text>
<polygon fill="none" stroke="black" points="179.21,-419.8 179.21,-450.6 518.17,-450.6 518.17,-419.8 179.21,-419.8"/>
<text text-anchor="start" x="186.21" y="-432" font-family="Arial" font-size="14.00">quotation_id </text>
<text text-anchor="start" x="266.39" y="-432" font-family="Arial" font-size="14.00" fill="#666666">[bigint]</text>
<polygon fill="none" stroke="black" points="179.21,-389 179.21,-419.8 518.17,-419.8 518.17,-389 179.21,-389"/>
<text text-anchor="start" x="186.21" y="-401.2" font-family="Arial" font-size="14.00">user_id </text>
<text text-anchor="start" x="236.02" y="-401.2" font-family="Arial" font-size="14.00" fill="#666666">[bigint]</text>
<polygon fill="none" stroke="black" stroke-width="3" points="177.71,-387.5 177.71,-487.7 519.67,-487.7 519.67,-387.5 177.71,-387.5"/>
</g>
<!-- public.quotations -->
<g id="node2" class="node">
<title>public.quotations</title>
<polygon fill="#efefef" stroke="none" points="43.2,-228 43.2,-263.6 306.18,-263.6 306.18,-228 43.2,-228"/>
<polygon fill="none" stroke="black" points="43.2,-228 43.2,-263.6 306.18,-263.6 306.18,-228 43.2,-228"/>
<text text-anchor="start" x="50.2" y="-241.4" font-family="Arial Bold" font-size="18.00">public.quotations</text>
<text text-anchor="start" x="174.69" y="-241.4" font-family="Arial" font-size="14.00">    </text>
<text text-anchor="start" x="205.81" y="-241.4" font-family="Arial" font-size="14.00" fill="#666666">[BASE TABLE]</text>
<polygon fill="none" stroke="black" points="43.2,-197.2 43.2,-228 306.18,-228 306.18,-197.2 43.2,-197.2"/>
<text text-anchor="start" x="50.2" y="-209.4" font-family="Arial" font-size="14.00">id </text>
<text text-anchor="start" x="64.99" y="-209.4" font-family="Arial" font-size="14.00" fill="#666666">[bigint]</text>
<polygon fill="none" stroke="black" points="43.2,-166.4 43.2,-197.2 306.18,-197.2 306.18,-166.4 43.2,-166.4"/>
<text text-anchor="start" x="50.2" y="-178.6" font-family="Arial" font-size="14.00">parent_id </text>
<text text-anchor="start" x="112.47" y="-178.6" font-family="Arial" font-size="14.00" fill="#666666">[bigint]</text>
<polygon fill="none" stroke="black" points="43.2,-135.6 43.2,-166.4 306.18,-166.4 306.18,-135.6 43.2,-135.6"/>
<text text-anchor="start" x="50.2" y="-147.8" font-family="Arial" font-size="14.00">company_client_id </text>
<text text-anchor="start" x="170.05" y="-147.8" font-family="Arial" font-size="14.00" fill="#666666">[bigint]</text>
<polygon fill="none" stroke="black" points="43.2,-104.8 43.2,-135.6 306.18,-135.6 306.18,-104.8 43.2,-104.8"/>
<text text-anchor="start" x="50.2" y="-117" font-family="Arial" font-size="14.00">contact_id </text>
<text text-anchor="start" x="117.91" y="-117" font-family="Arial" font-size="14.00" fill="#666666">[bigint]</text>
<polygon fill="none" stroke="black" points="43.2,-74 43.2,-104.8 306.18,-104.8 306.18,-74 43.2,-74"/>
<text text-anchor="start" x="50.2" y="-86.2" font-family="Arial" font-size="14.00">created_by </text>
<text text-anchor="start" x="123.36" y="-86.2" font-family="Arial" font-size="14.00" fill="#666666">[bigint]</text>
<polygon fill="none" stroke="black" points="43.2,-43.2 43.2,-74 306.18,-74 306.18,-43.2 43.2,-43.2"/>
<text text-anchor="start" x="50.2" y="-55.4" font-family="Arial" font-size="14.00">updated_by </text>
<text text-anchor="start" x="127.27" y="-55.4" font-family="Arial" font-size="14.00" fill="#666666">[bigint]</text>
</g>
<!-- public.quotation_edit_locks&#45;&gt;public.quotations -->
<g id="edge1" class="edge">
<title>public.quotation_edit_locks:quotation_id&#45;&gt;public.quotations:id</title>
<path fill="none" stroke="black" d="M168.15,-433.7C140.42,-424.23 156.61,-372.37 179.21,-342.8 214.83,-296.2 270.56,-353.4 306.18,-306.8 331.6,-273.53 349.05,-212.6 307.18,-212.6"/>
<polygon fill="black" stroke="black" points="167.99,-433.67 177.21,-439.6 173.26,-434.46 177.55,-435.1 177.55,-435.1 177.55,-435.1 173.26,-434.46 178.54,-430.7 167.99,-433.67"/>
</g>
<!-- public.users -->
<g id="node3" class="node">
<title>public.users</title>
<polygon fill="#efefef" stroke="none" points="410.2,-181.8 410.2,-217.4 635.18,-217.4 635.18,-181.8 410.2,-181.8"/>
<polygon fill="none" stroke="black" points="410.2,-181.8 410.2,-217.4 635.18,-217.4 635.18,-181.8 410.2,-181.8"/>
<text text-anchor="start" x="417.2" y="-195.2" font-family="Arial Bold" font-size="18.00">public.users</text>
<text text-anchor="start" x="503.69" y="-195.2" font-family="Arial" font-size="14.00">    </text>
<text text-anchor="start" x="534.8" y="-195.2" font-family="Arial" font-size="14.00" fill="#666666">[BASE TABLE]</text>
<polygon fill="none" stroke="black" points="410.2,-151 410.2,-181.8 635.18,-181.8 635.18,-151 410.2,-151"/>
<text text-anchor="start" x="417.2" y="-163.2" font-family="Arial" font-size="14.00">id </text>
<text text-anchor="start" x="431.99" y="-163.2" font-family="Arial" font-size="14.00" fill="#666666">[bigint]</text>
<polygon fill="none" stroke="black" points="410.2,-120.2 410.2,-151 635.18,-151 635.18,-120.2 410.2,-120.2"/>
<text text-anchor="start" x="417.2" y="-132.4" font-family="Arial" font-size="14.00">created_by </text>
<text text-anchor="start" x="490.36" y="-132.4" font-family="Arial" font-size="14.00" fill="#666666">[bigint]</text>
<polygon fill="none" stroke="black" points="410.2,-89.4 410.2,-120.2 635.18,-120.2 635.18,-89.4 410.2,-89.4"/>
<text text-anchor="start" x="417.2" y="-101.6" font-family="Arial" font-size="14.00">updated_by </text>
<text text-anchor="start" x="494.27" y="-101.6" font-family="Arial" font-size="14.00" fill="#666666">[bigint]</text>
</g>
<!-- public.quotation_edit_locks&#45;&gt;public.users -->
<g id="edge2" class="edge">
<title>public.quotation_edit_locks:user_id&#45;&gt;public.users:id</title>
<path fill="none" stroke="black" d="M529,-401.87C541.63,-393.1 528.59,-363.42 518.17,-342.8 490.95,-288.98 437.26,-314.5 410.2,-260.6 391.41,-223.18 367.33,-166.4 409.2,-166.4"/>
<polygon fill="black" stroke="black" points="529.18,-401.82 518.37,-399.96 524.01,-403.15 519.82,-404.23 519.82,-404.23 519.82,-404.23 524.01,-403.15 520.61,-408.67 529.18,-401.82"/>
</g>
</g>
</svg>
