<?xml version="1.0" encoding="UTF-8" standalone="no"?>
<!DOCTYPE svg PUBLIC "-//W3C//DTD SVG 1.1//EN"
 "http://www.w3.org/Graphics/SVG/1.1/DTD/svg11.dtd">
<!-- Generated by graphviz version 12.1.2 (20240928.0832)
 -->
<!-- Title: public.purchase_orders Pages: 1 -->
<svg width="1573pt" height="1037pt"
 viewBox="0.00 0.00 1573.38 1037.20" xmlns="http://www.w3.org/2000/svg" xmlns:xlink="http://www.w3.org/1999/xlink">
<g id="graph0" class="graph" transform="scale(1 1) rotate(0) translate(4 1033.2)">
<title>public.purchase_orders</title>
<polygon fill="white" stroke="none" points="-4,4 -4,-1033.2 1569.38,-1033.2 1569.38,4 -4,4"/>
<!-- public.purchase_orders -->
<g id="node1" class="node">
<title>public.purchase_orders</title>
<polygon fill="#efefef" stroke="none" points="825.72,-573.8 825.72,-609.4 1131.65,-609.4 1131.65,-573.8 825.72,-573.8"/>
<polygon fill="none" stroke="black" points="825.72,-573.8 825.72,-609.4 1131.65,-609.4 1131.65,-573.8 825.72,-573.8"/>
<text text-anchor="start" x="832.72" y="-587.2" font-family="Arial Bold" font-size="18.00">public.purchase_orders</text>
<text text-anchor="start" x="1000.16" y="-587.2" font-family="Arial" font-size="14.00">    </text>
<text text-anchor="start" x="1031.28" y="-587.2" font-family="Arial" font-size="14.00" fill="#666666">[BASE TABLE]</text>
<polygon fill="none" stroke="black" points="825.72,-543 825.72,-573.8 1131.65,-573.8 1131.65,-543 825.72,-543"/>
<text text-anchor="start" x="832.72" y="-555.2" font-family="Arial" font-size="14.00">id </text>
<text text-anchor="start" x="847.51" y="-555.2" font-family="Arial" font-size="14.00" fill="#666666">[bigint]</text>
<polygon fill="none" stroke="black" points="825.72,-512.2 825.72,-543 1131.65,-543 1131.65,-512.2 825.72,-512.2"/>
<text text-anchor="start" x="832.72" y="-524.4" font-family="Arial" font-size="14.00">quotation_id </text>
<text text-anchor="start" x="912.9" y="-524.4" font-family="Arial" font-size="14.00" fill="#666666">[bigint]</text>
<polygon fill="none" stroke="black" points="825.72,-481.4 825.72,-512.2 1131.65,-512.2 1131.65,-481.4 825.72,-481.4"/>
<text text-anchor="start" x="832.72" y="-493.6" font-family="Arial" font-size="14.00">company_client_id </text>
<text text-anchor="start" x="952.57" y="-493.6" font-family="Arial" font-size="14.00" fill="#666666">[bigint]</text>
<polygon fill="none" stroke="black" points="825.72,-450.6 825.72,-481.4 1131.65,-481.4 1131.65,-450.6 825.72,-450.6"/>
<text text-anchor="start" x="832.72" y="-462.8" font-family="Arial" font-size="14.00">contact_id </text>
<text text-anchor="start" x="900.43" y="-462.8" font-family="Arial" font-size="14.00" fill="#666666">[bigint]</text>
<polygon fill="none" stroke="black" points="825.72,-419.8 825.72,-450.6 1131.65,-450.6 1131.65,-419.8 825.72,-419.8"/>
<text text-anchor="start" x="832.72" y="-432" font-family="Arial" font-size="14.00">created_by </text>
<text text-anchor="start" x="905.88" y="-432" font-family="Arial" font-size="14.00" fill="#666666">[bigint]</text>
<polygon fill="none" stroke="black" points="825.72,-389 825.72,-419.8 1131.65,-419.8 1131.65,-389 825.72,-389"/>
<text text-anchor="start" x="832.72" y="-401.2" font-family="Arial" font-size="14.00">updated_by </text>
<text text-anchor="start" x="909.79" y="-401.2" font-family="Arial" font-size="14.00" fill="#666666">[bigint]</text>
<polygon fill="none" stroke="black" stroke-width="3" points="824.22,-387.5 824.22,-610.9 1133.15,-610.9 1133.15,-387.5 824.22,-387.5"/>
</g>
<!-- public.quotations -->
<g id="node5" class="node">
<title>public.quotations</title>
<polygon fill="#efefef" stroke="none" points="43.2,-228 43.2,-263.6 306.18,-263.6 306.18,-228 43.2,-228"/>
<polygon fill="none" stroke="black" points="43.2,-228 43.2,-263.6 306.18,-263.6 306.18,-228 43.2,-228"/>
<text text-anchor="start" x="50.2" y="-241.4" font-family="Arial Bold" font-size="18.00">public.quotations</text>
<text text-anchor="start" x="174.69" y="-241.4" font-family="Arial" font-size="14.00">    </text>
<text text-anchor="start" x="205.81" y="-241.4" font-family="Arial" font-size="14.00" fill="#666666">[BASE TABLE]</text>
<polygon fill="none" stroke="black" points="43.2,-197.2 43.2,-228 306.18,-228 306.18,-197.2 43.2,-197.2"/>
<text text-anchor="start" x="50.2" y="-209.4" font-family="Arial" font-size="14.00">id </text>
<text text-anchor="start" x="64.99" y="-209.4" font-family="Arial" font-size="14.00" fill="#666666">[bigint]</text>
<polygon fill="none" stroke="black" points="43.2,-166.4 43.2,-197.2 306.18,-197.2 306.18,-166.4 43.2,-166.4"/>
<text text-anchor="start" x="50.2" y="-178.6" font-family="Arial" font-size="14.00">parent_id </text>
<text text-anchor="start" x="112.47" y="-178.6" font-family="Arial" font-size="14.00" fill="#666666">[bigint]</text>
<polygon fill="none" stroke="black" points="43.2,-135.6 43.2,-166.4 306.18,-166.4 306.18,-135.6 43.2,-135.6"/>
<text text-anchor="start" x="50.2" y="-147.8" font-family="Arial" font-size="14.00">company_client_id </text>
<text text-anchor="start" x="170.05" y="-147.8" font-family="Arial" font-size="14.00" fill="#666666">[bigint]</text>
<polygon fill="none" stroke="black" points="43.2,-104.8 43.2,-135.6 306.18,-135.6 306.18,-104.8 43.2,-104.8"/>
<text text-anchor="start" x="50.2" y="-117" font-family="Arial" font-size="14.00">contact_id </text>
<text text-anchor="start" x="117.91" y="-117" font-family="Arial" font-size="14.00" fill="#666666">[bigint]</text>
<polygon fill="none" stroke="black" points="43.2,-74 43.2,-104.8 306.18,-104.8 306.18,-74 43.2,-74"/>
<text text-anchor="start" x="50.2" y="-86.2" font-family="Arial" font-size="14.00">created_by </text>
<text text-anchor="start" x="123.36" y="-86.2" font-family="Arial" font-size="14.00" fill="#666666">[bigint]</text>
<polygon fill="none" stroke="black" points="43.2,-43.2 43.2,-74 306.18,-74 306.18,-43.2 43.2,-43.2"/>
<text text-anchor="start" x="50.2" y="-55.4" font-family="Arial" font-size="14.00">updated_by </text>
<text text-anchor="start" x="127.27" y="-55.4" font-family="Arial" font-size="14.00" fill="#666666">[bigint]</text>
</g>
<!-- public.purchase_orders&#45;&gt;public.quotations -->
<g id="edge4" class="edge">
<title>public.purchase_orders:quotation_id&#45;&gt;public.quotations:id</title>
<path fill="none" stroke="black" d="M814.41,-527.56C592.95,-525.68 521.57,-462.6 357.69,-306.8 323.26,-274.07 354.68,-212.6 307.18,-212.6"/>
<polygon fill="black" stroke="black" points="814.39,-527.56 824.37,-532.1 819.72,-527.58 824.05,-527.6 824.05,-527.6 824.05,-527.6 819.72,-527.58 824.41,-523.1 814.39,-527.56"/>
</g>
<!-- public.company_client -->
<g id="node6" class="node">
<title>public.company_client</title>
<polygon fill="#efefef" stroke="none" points="410.22,-197.2 410.22,-232.8 713.16,-232.8 713.16,-197.2 410.22,-197.2"/>
<polygon fill="none" stroke="black" points="410.22,-197.2 410.22,-232.8 713.16,-232.8 713.16,-197.2 410.22,-197.2"/>
<text text-anchor="start" x="417.22" y="-210.6" font-family="Arial Bold" font-size="18.00">public.company_client</text>
<text text-anchor="start" x="581.67" y="-210.6" font-family="Arial" font-size="14.00">    </text>
<text text-anchor="start" x="612.79" y="-210.6" font-family="Arial" font-size="14.00" fill="#666666">[BASE TABLE]</text>
<polygon fill="none" stroke="black" points="410.22,-166.4 410.22,-197.2 713.16,-197.2 713.16,-166.4 410.22,-166.4"/>
<text text-anchor="start" x="417.22" y="-178.6" font-family="Arial" font-size="14.00">id </text>
<text text-anchor="start" x="432" y="-178.6" font-family="Arial" font-size="14.00" fill="#666666">[bigint]</text>
<polygon fill="none" stroke="black" points="410.22,-135.6 410.22,-166.4 713.16,-166.4 713.16,-135.6 410.22,-135.6"/>
<text text-anchor="start" x="417.22" y="-147.8" font-family="Arial" font-size="14.00">country_code </text>
<text text-anchor="start" x="505.16" y="-147.8" font-family="Arial" font-size="14.00" fill="#666666">[character(3)]</text>
<polygon fill="none" stroke="black" points="410.22,-104.8 410.22,-135.6 713.16,-135.6 713.16,-104.8 410.22,-104.8"/>
<text text-anchor="start" x="417.22" y="-117" font-family="Arial" font-size="14.00">created_by </text>
<text text-anchor="start" x="490.38" y="-117" font-family="Arial" font-size="14.00" fill="#666666">[bigint]</text>
<polygon fill="none" stroke="black" points="410.22,-74 410.22,-104.8 713.16,-104.8 713.16,-74 410.22,-74"/>
<text text-anchor="start" x="417.22" y="-86.2" font-family="Arial" font-size="14.00">updated_by </text>
<text text-anchor="start" x="494.29" y="-86.2" font-family="Arial" font-size="14.00" fill="#666666">[bigint]</text>
</g>
<!-- public.purchase_orders&#45;&gt;public.company_client -->
<g id="edge5" class="edge">
<title>public.purchase_orders:company_client_id&#45;&gt;public.company_client:id</title>
<path fill="none" stroke="black" d="M814.63,-494.62C753.96,-466.79 784.72,-181.8 714.16,-181.8"/>
<polygon fill="black" stroke="black" points="814.62,-494.62 823.45,-501.13 819.84,-495.74 824.07,-496.66 824.07,-496.66 824.07,-496.66 819.84,-495.74 825.35,-492.33 814.62,-494.62"/>
</g>
<!-- public.company_contacts -->
<g id="node7" class="node">
<title>public.company_contacts</title>
<polygon fill="#efefef" stroke="none" points="817.72,-212.6 817.72,-248.2 1139.66,-248.2 1139.66,-212.6 817.72,-212.6"/>
<polygon fill="none" stroke="black" points="817.72,-212.6 817.72,-248.2 1139.66,-248.2 1139.66,-212.6 817.72,-212.6"/>
<text text-anchor="start" x="824.72" y="-226" font-family="Arial Bold" font-size="18.00">public.company_contacts</text>
<text text-anchor="start" x="1008.17" y="-226" font-family="Arial" font-size="14.00">    </text>
<text text-anchor="start" x="1039.28" y="-226" font-family="Arial" font-size="14.00" fill="#666666">[BASE TABLE]</text>
<polygon fill="none" stroke="black" points="817.72,-181.8 817.72,-212.6 1139.66,-212.6 1139.66,-181.8 817.72,-181.8"/>
<text text-anchor="start" x="824.72" y="-194" font-family="Arial" font-size="14.00">id </text>
<text text-anchor="start" x="839.51" y="-194" font-family="Arial" font-size="14.00" fill="#666666">[bigint]</text>
<polygon fill="none" stroke="black" points="817.72,-151 817.72,-181.8 1139.66,-181.8 1139.66,-151 817.72,-151"/>
<text text-anchor="start" x="824.72" y="-163.2" font-family="Arial" font-size="14.00">company_id </text>
<text text-anchor="start" x="904.1" y="-163.2" font-family="Arial" font-size="14.00" fill="#666666">[bigint]</text>
<polygon fill="none" stroke="black" points="817.72,-120.2 817.72,-151 1139.66,-151 1139.66,-120.2 817.72,-120.2"/>
<text text-anchor="start" x="824.72" y="-132.4" font-family="Arial" font-size="14.00">created_by </text>
<text text-anchor="start" x="897.88" y="-132.4" font-family="Arial" font-size="14.00" fill="#666666">[bigint]</text>
<polygon fill="none" stroke="black" points="817.72,-89.4 817.72,-120.2 1139.66,-120.2 1139.66,-89.4 817.72,-89.4"/>
<text text-anchor="start" x="824.72" y="-101.6" font-family="Arial" font-size="14.00">updated_by </text>
<text text-anchor="start" x="901.79" y="-101.6" font-family="Arial" font-size="14.00" fill="#666666">[bigint]</text>
<polygon fill="none" stroke="black" points="817.72,-58.6 817.72,-89.4 1139.66,-89.4 1139.66,-58.6 817.72,-58.6"/>
<text text-anchor="start" x="824.72" y="-70.8" font-family="Arial" font-size="14.00">country_code </text>
<text text-anchor="start" x="912.67" y="-70.8" font-family="Arial" font-size="14.00" fill="#666666">[character(3)]</text>
</g>
<!-- public.purchase_orders&#45;&gt;public.company_contacts -->
<g id="edge6" class="edge">
<title>public.purchase_orders:contact_id&#45;&gt;public.company_contacts:id</title>
<path fill="none" stroke="black" d="M1142.62,-463.34C1193.12,-435.42 1196.91,-197.2 1140.66,-197.2"/>
<polygon fill="black" stroke="black" points="1142.64,-463.34 1131.82,-461.57 1137.48,-464.71 1133.3,-465.83 1133.3,-465.83 1133.3,-465.83 1137.48,-464.71 1134.14,-470.26 1142.64,-463.34"/>
</g>
<!-- public.users -->
<g id="node8" class="node">
<title>public.users</title>
<polygon fill="#efefef" stroke="none" points="1244.2,-181.8 1244.2,-217.4 1469.18,-217.4 1469.18,-181.8 1244.2,-181.8"/>
<polygon fill="none" stroke="black" points="1244.2,-181.8 1244.2,-217.4 1469.18,-217.4 1469.18,-181.8 1244.2,-181.8"/>
<text text-anchor="start" x="1251.2" y="-195.2" font-family="Arial Bold" font-size="18.00">public.users</text>
<text text-anchor="start" x="1337.69" y="-195.2" font-family="Arial" font-size="14.00">    </text>
<text text-anchor="start" x="1368.8" y="-195.2" font-family="Arial" font-size="14.00" fill="#666666">[BASE TABLE]</text>
<polygon fill="none" stroke="black" points="1244.2,-151 1244.2,-181.8 1469.18,-181.8 1469.18,-151 1244.2,-151"/>
<text text-anchor="start" x="1251.2" y="-163.2" font-family="Arial" font-size="14.00">id </text>
<text text-anchor="start" x="1265.99" y="-163.2" font-family="Arial" font-size="14.00" fill="#666666">[bigint]</text>
<polygon fill="none" stroke="black" points="1244.2,-120.2 1244.2,-151 1469.18,-151 1469.18,-120.2 1244.2,-120.2"/>
<text text-anchor="start" x="1251.2" y="-132.4" font-family="Arial" font-size="14.00">created_by </text>
<text text-anchor="start" x="1324.36" y="-132.4" font-family="Arial" font-size="14.00" fill="#666666">[bigint]</text>
<polygon fill="none" stroke="black" points="1244.2,-89.4 1244.2,-120.2 1469.18,-120.2 1469.18,-89.4 1244.2,-89.4"/>
<text text-anchor="start" x="1251.2" y="-101.6" font-family="Arial" font-size="14.00">updated_by </text>
<text text-anchor="start" x="1328.27" y="-101.6" font-family="Arial" font-size="14.00" fill="#666666">[bigint]</text>
</g>
<!-- public.purchase_orders&#45;&gt;public.users -->
<g id="edge7" class="edge">
<title>public.purchase_orders:created_by&#45;&gt;public.users:id</title>
<path fill="none" stroke="black" d="M1142.79,-434.49C1192.39,-427 1169.14,-361.46 1191.69,-306.8 1217.04,-245.36 1176.73,-166.4 1243.2,-166.4"/>
<polygon fill="black" stroke="black" points="1142.96,-434.48 1132.67,-430.69 1137.64,-434.85 1133.32,-435.15 1133.32,-435.15 1133.32,-435.15 1137.64,-434.85 1133.3,-439.67 1142.96,-434.48"/>
</g>
<!-- public.purchase_orders&#45;&gt;public.users -->
<g id="edge8" class="edge">
<title>public.purchase_orders:updated_by&#45;&gt;public.users:id</title>
<path fill="none" stroke="black" d="M1142.92,-403.57C1181.52,-396.73 1171.37,-349.11 1191.69,-306.8 1220.47,-246.89 1176.73,-166.4 1243.2,-166.4"/>
<polygon fill="black" stroke="black" points="1142.95,-403.56 1132.62,-399.89 1137.64,-404 1133.32,-404.35 1133.32,-404.35 1133.32,-404.35 1137.64,-404 1133.35,-408.86 1142.95,-403.56"/>
</g>
<!-- public.purchase_order_items -->
<g id="node2" class="node">
<title>public.purchase_order_items</title>
<polygon fill="#efefef" stroke="none" points="403.23,-935 403.23,-970.6 750.15,-970.6 750.15,-935 403.23,-935"/>
<polygon fill="none" stroke="black" points="403.23,-935 403.23,-970.6 750.15,-970.6 750.15,-935 403.23,-935"/>
<text text-anchor="start" x="410.23" y="-948.4" font-family="Arial Bold" font-size="18.00">public.purchase_order_items</text>
<text text-anchor="start" x="618.66" y="-948.4" font-family="Arial" font-size="14.00">    </text>
<text text-anchor="start" x="649.78" y="-948.4" font-family="Arial" font-size="14.00" fill="#666666">[BASE TABLE]</text>
<polygon fill="none" stroke="black" points="403.23,-904.2 403.23,-935 750.15,-935 750.15,-904.2 403.23,-904.2"/>
<text text-anchor="start" x="410.23" y="-916.4" font-family="Arial" font-size="14.00">po_id </text>
<text text-anchor="start" x="448.37" y="-916.4" font-family="Arial" font-size="14.00" fill="#666666">[bigint]</text>
<polygon fill="none" stroke="black" points="403.23,-873.4 403.23,-904.2 750.15,-904.2 750.15,-873.4 403.23,-873.4"/>
<text text-anchor="start" x="410.23" y="-885.6" font-family="Arial" font-size="14.00">quotation_item_id </text>
<text text-anchor="start" x="524.64" y="-885.6" font-family="Arial" font-size="14.00" fill="#666666">[bigint]</text>
<polygon fill="none" stroke="black" points="403.23,-842.6 403.23,-873.4 750.15,-873.4 750.15,-842.6 403.23,-842.6"/>
<text text-anchor="start" x="410.23" y="-854.8" font-family="Arial" font-size="14.00">offered_item_id </text>
<text text-anchor="start" x="510.62" y="-854.8" font-family="Arial" font-size="14.00" fill="#666666">[bigint]</text>
<polygon fill="none" stroke="black" points="403.23,-811.8 403.23,-842.6 750.15,-842.6 750.15,-811.8 403.23,-811.8"/>
<text text-anchor="start" x="410.23" y="-824" font-family="Arial" font-size="14.00">unit_id </text>
<text text-anchor="start" x="455.37" y="-824" font-family="Arial" font-size="14.00" fill="#666666">[smallint]</text>
<polygon fill="none" stroke="black" points="403.23,-781 403.23,-811.8 750.15,-811.8 750.15,-781 403.23,-781"/>
<text text-anchor="start" x="410.23" y="-793.2" font-family="Arial" font-size="14.00">created_by </text>
<text text-anchor="start" x="483.39" y="-793.2" font-family="Arial" font-size="14.00" fill="#666666">[bigint]</text>
<polygon fill="none" stroke="black" points="403.23,-750.2 403.23,-781 750.15,-781 750.15,-750.2 403.23,-750.2"/>
<text text-anchor="start" x="410.23" y="-762.4" font-family="Arial" font-size="14.00">updated_by </text>
<text text-anchor="start" x="487.3" y="-762.4" font-family="Arial" font-size="14.00" fill="#666666">[bigint]</text>
</g>
<!-- public.purchase_order_items&#45;&gt;public.purchase_orders -->
<g id="edge1" class="edge">
<title>public.purchase_order_items:po_id&#45;&gt;public.purchase_orders:id</title>
<path fill="none" stroke="black" d="M761.18,-917.48C825.3,-887.88 746.49,-558.4 824.72,-558.4"/>
<polygon fill="black" stroke="black" points="761.26,-917.46 750.55,-915.13 756.04,-918.57 751.8,-919.46 751.8,-919.46 751.8,-919.46 756.04,-918.57 752.41,-923.93 761.26,-917.46"/>
</g>
<!-- public.invoices -->
<g id="node3" class="node">
<title>public.invoices</title>
<polygon fill="#efefef" stroke="none" points="854.71,-950.4 854.71,-986 1102.67,-986 1102.67,-950.4 854.71,-950.4"/>
<polygon fill="none" stroke="black" points="854.71,-950.4 854.71,-986 1102.67,-986 1102.67,-950.4 854.71,-950.4"/>
<text text-anchor="start" x="861.71" y="-963.8" font-family="Arial Bold" font-size="18.00">public.invoices</text>
<text text-anchor="start" x="971.18" y="-963.8" font-family="Arial" font-size="14.00">    </text>
<text text-anchor="start" x="1002.3" y="-963.8" font-family="Arial" font-size="14.00" fill="#666666">[BASE TABLE]</text>
<polygon fill="none" stroke="black" points="854.71,-919.6 854.71,-950.4 1102.67,-950.4 1102.67,-919.6 854.71,-919.6"/>
<text text-anchor="start" x="861.71" y="-931.8" font-family="Arial" font-size="14.00">id </text>
<text text-anchor="start" x="876.49" y="-931.8" font-family="Arial" font-size="14.00" fill="#666666">[bigint]</text>
<polygon fill="none" stroke="black" points="854.71,-888.8 854.71,-919.6 1102.67,-919.6 1102.67,-888.8 854.71,-888.8"/>
<text text-anchor="start" x="861.71" y="-901" font-family="Arial" font-size="14.00">quotation_id </text>
<text text-anchor="start" x="941.88" y="-901" font-family="Arial" font-size="14.00" fill="#666666">[bigint]</text>
<polygon fill="none" stroke="black" points="854.71,-858 854.71,-888.8 1102.67,-888.8 1102.67,-858 854.71,-858"/>
<text text-anchor="start" x="861.71" y="-870.2" font-family="Arial" font-size="14.00">po_id </text>
<text text-anchor="start" x="899.85" y="-870.2" font-family="Arial" font-size="14.00" fill="#666666">[bigint]</text>
<polygon fill="none" stroke="black" points="854.71,-827.2 854.71,-858 1102.67,-858 1102.67,-827.2 854.71,-827.2"/>
<text text-anchor="start" x="861.71" y="-839.4" font-family="Arial" font-size="14.00">company_client_id </text>
<text text-anchor="start" x="981.55" y="-839.4" font-family="Arial" font-size="14.00" fill="#666666">[bigint]</text>
<polygon fill="none" stroke="black" points="854.71,-796.4 854.71,-827.2 1102.67,-827.2 1102.67,-796.4 854.71,-796.4"/>
<text text-anchor="start" x="861.71" y="-808.6" font-family="Arial" font-size="14.00">created_by </text>
<text text-anchor="start" x="934.86" y="-808.6" font-family="Arial" font-size="14.00" fill="#666666">[bigint]</text>
<polygon fill="none" stroke="black" points="854.71,-765.6 854.71,-796.4 1102.67,-796.4 1102.67,-765.6 854.71,-765.6"/>
<text text-anchor="start" x="861.71" y="-777.8" font-family="Arial" font-size="14.00">updated_by </text>
<text text-anchor="start" x="938.77" y="-777.8" font-family="Arial" font-size="14.00" fill="#666666">[bigint]</text>
<polygon fill="none" stroke="black" points="854.71,-734.8 854.71,-765.6 1102.67,-765.6 1102.67,-734.8 854.71,-734.8"/>
<text text-anchor="start" x="861.71" y="-747" font-family="Arial" font-size="14.00">replaces_invoice_id </text>
<text text-anchor="start" x="988.56" y="-747" font-family="Arial" font-size="14.00" fill="#666666">[bigint]</text>
</g>
<!-- public.invoices&#45;&gt;public.purchase_orders -->
<g id="edge2" class="edge">
<title>public.invoices:po_id&#45;&gt;public.purchase_orders:id</title>
<path fill="none" stroke="black" d="M1112.16,-867.39C1143.14,-823.84 1164.92,-558.4 1132.65,-558.4"/>
<polygon fill="black" stroke="black" points="1112.11,-867.43 1101.34,-869.53 1107.75,-870.51 1104.22,-873.01 1104.22,-873.01 1104.22,-873.01 1107.75,-870.51 1106.54,-876.88 1112.11,-867.43"/>
</g>
<!-- public.po_status_history -->
<g id="node4" class="node">
<title>public.po_status_history</title>
<polygon fill="#efefef" stroke="none" points="1207.2,-873.4 1207.2,-909 1522.18,-909 1522.18,-873.4 1207.2,-873.4"/>
<polygon fill="none" stroke="black" points="1207.2,-873.4 1207.2,-909 1522.18,-909 1522.18,-873.4 1207.2,-873.4"/>
<text text-anchor="start" x="1214.2" y="-886.8" font-family="Arial Bold" font-size="18.00">public.po_status_history</text>
<text text-anchor="start" x="1390.69" y="-886.8" font-family="Arial" font-size="14.00">    </text>
<text text-anchor="start" x="1421.81" y="-886.8" font-family="Arial" font-size="14.00" fill="#666666">[BASE TABLE]</text>
<polygon fill="none" stroke="black" points="1207.2,-842.6 1207.2,-873.4 1522.18,-873.4 1522.18,-842.6 1207.2,-842.6"/>
<text text-anchor="start" x="1214.2" y="-854.8" font-family="Arial" font-size="14.00">po_id </text>
<text text-anchor="start" x="1252.34" y="-854.8" font-family="Arial" font-size="14.00" fill="#666666">[bigint]</text>
<polygon fill="none" stroke="black" points="1207.2,-811.8 1207.2,-842.6 1522.18,-842.6 1522.18,-811.8 1207.2,-811.8"/>
<text text-anchor="start" x="1214.2" y="-824" font-family="Arial" font-size="14.00">changed_by </text>
<text text-anchor="start" x="1294.38" y="-824" font-family="Arial" font-size="14.00" fill="#666666">[bigint]</text>
</g>
<!-- public.po_status_history&#45;&gt;public.purchase_orders -->
<g id="edge3" class="edge">
<title>public.po_status_history:po_id&#45;&gt;public.purchase_orders:id</title>
<path fill="none" stroke="black" d="M1196.04,-857.39C1079.44,-842.41 1266.15,-558.4 1132.65,-558.4"/>
<polygon fill="black" stroke="black" points="1195.88,-857.38 1205.59,-862.47 1201.21,-857.7 1205.53,-857.96 1205.53,-857.96 1205.53,-857.96 1201.21,-857.7 1206.14,-853.49 1195.88,-857.38"/>
</g>
</g>
</svg>
