<?xml version="1.0" encoding="UTF-8" standalone="no"?>
<!DOCTYPE svg PUBLIC "-//W3C//DTD SVG 1.1//EN"
 "http://www.w3.org/Graphics/SVG/1.1/DTD/svg11.dtd">
<!-- Generated by graphviz version 12.1.2 (20240928.0832)
 -->
<!-- Title: public.invoice_items Pages: 1 -->
<svg width="1738pt" height="756pt"
 viewBox="0.00 0.00 1737.88 756.00" xmlns="http://www.w3.org/2000/svg" xmlns:xlink="http://www.w3.org/1999/xlink">
<g id="graph0" class="graph" transform="scale(1 1) rotate(0) translate(4 752)">
<title>public.invoice_items</title>
<polygon fill="white" stroke="none" points="-4,4 -4,-752 1733.88,-752 1733.88,4 -4,4"/>
<!-- public.invoice_items -->
<g id="node1" class="node">
<title>public.invoice_items</title>
<polygon fill="#efefef" stroke="none" points="771.7,-666.2 771.7,-701.8 1060.66,-701.8 1060.66,-666.2 771.7,-666.2"/>
<polygon fill="none" stroke="black" points="771.7,-666.2 771.7,-701.8 1060.66,-701.8 1060.66,-666.2 771.7,-666.2"/>
<text text-anchor="start" x="778.7" y="-679.6" font-family="Arial Bold" font-size="18.00">public.invoice_items</text>
<text text-anchor="start" x="929.17" y="-679.6" font-family="Arial" font-size="14.00">    </text>
<text text-anchor="start" x="960.29" y="-679.6" font-family="Arial" font-size="14.00" fill="#666666">[BASE TABLE]</text>
<polygon fill="none" stroke="black" points="771.7,-635.4 771.7,-666.2 1060.66,-666.2 1060.66,-635.4 771.7,-635.4"/>
<text text-anchor="start" x="778.7" y="-647.6" font-family="Arial" font-size="14.00">invoice_id </text>
<text text-anchor="start" x="844.86" y="-647.6" font-family="Arial" font-size="14.00" fill="#666666">[bigint]</text>
<polygon fill="none" stroke="black" points="771.7,-604.6 771.7,-635.4 1060.66,-635.4 1060.66,-604.6 771.7,-604.6"/>
<text text-anchor="start" x="778.7" y="-616.8" font-family="Arial" font-size="14.00">quotation_item_id </text>
<text text-anchor="start" x="893.12" y="-616.8" font-family="Arial" font-size="14.00" fill="#666666">[bigint]</text>
<polygon fill="none" stroke="black" points="771.7,-573.8 771.7,-604.6 1060.66,-604.6 1060.66,-573.8 771.7,-573.8"/>
<text text-anchor="start" x="778.7" y="-586" font-family="Arial" font-size="14.00">created_by </text>
<text text-anchor="start" x="851.86" y="-586" font-family="Arial" font-size="14.00" fill="#666666">[bigint]</text>
<polygon fill="none" stroke="black" points="771.7,-543 771.7,-573.8 1060.66,-573.8 1060.66,-543 771.7,-543"/>
<text text-anchor="start" x="778.7" y="-555.2" font-family="Arial" font-size="14.00">updated_by </text>
<text text-anchor="start" x="855.77" y="-555.2" font-family="Arial" font-size="14.00" fill="#666666">[bigint]</text>
<polygon fill="none" stroke="black" points="771.7,-512.2 771.7,-543 1060.66,-543 1060.66,-512.2 771.7,-512.2"/>
<text text-anchor="start" x="778.7" y="-524.4" font-family="Arial" font-size="14.00">offered_item_id </text>
<text text-anchor="start" x="879.1" y="-524.4" font-family="Arial" font-size="14.00" fill="#666666">[bigint]</text>
<polygon fill="none" stroke="black" points="771.7,-481.4 771.7,-512.2 1060.66,-512.2 1060.66,-481.4 771.7,-481.4"/>
<text text-anchor="start" x="778.7" y="-493.6" font-family="Arial" font-size="14.00">unit_id </text>
<text text-anchor="start" x="823.85" y="-493.6" font-family="Arial" font-size="14.00" fill="#666666">[smallint]</text>
<polygon fill="none" stroke="black" stroke-width="3" points="770.2,-479.9 770.2,-703.3 1062.16,-703.3 1062.16,-479.9 770.2,-479.9"/>
</g>
<!-- public.invoices -->
<g id="node2" class="node">
<title>public.invoices</title>
<polygon fill="#efefef" stroke="none" points="43.2,-274.2 43.2,-309.8 291.17,-309.8 291.17,-274.2 43.2,-274.2"/>
<polygon fill="none" stroke="black" points="43.2,-274.2 43.2,-309.8 291.17,-309.8 291.17,-274.2 43.2,-274.2"/>
<text text-anchor="start" x="50.2" y="-287.6" font-family="Arial Bold" font-size="18.00">public.invoices</text>
<text text-anchor="start" x="159.68" y="-287.6" font-family="Arial" font-size="14.00">    </text>
<text text-anchor="start" x="190.79" y="-287.6" font-family="Arial" font-size="14.00" fill="#666666">[BASE TABLE]</text>
<polygon fill="none" stroke="black" points="43.2,-243.4 43.2,-274.2 291.17,-274.2 291.17,-243.4 43.2,-243.4"/>
<text text-anchor="start" x="50.2" y="-255.6" font-family="Arial" font-size="14.00">id </text>
<text text-anchor="start" x="64.99" y="-255.6" font-family="Arial" font-size="14.00" fill="#666666">[bigint]</text>
<polygon fill="none" stroke="black" points="43.2,-212.6 43.2,-243.4 291.17,-243.4 291.17,-212.6 43.2,-212.6"/>
<text text-anchor="start" x="50.2" y="-224.8" font-family="Arial" font-size="14.00">quotation_id </text>
<text text-anchor="start" x="130.38" y="-224.8" font-family="Arial" font-size="14.00" fill="#666666">[bigint]</text>
<polygon fill="none" stroke="black" points="43.2,-181.8 43.2,-212.6 291.17,-212.6 291.17,-181.8 43.2,-181.8"/>
<text text-anchor="start" x="50.2" y="-194" font-family="Arial" font-size="14.00">po_id </text>
<text text-anchor="start" x="88.34" y="-194" font-family="Arial" font-size="14.00" fill="#666666">[bigint]</text>
<polygon fill="none" stroke="black" points="43.2,-151 43.2,-181.8 291.17,-181.8 291.17,-151 43.2,-151"/>
<text text-anchor="start" x="50.2" y="-163.2" font-family="Arial" font-size="14.00">company_client_id </text>
<text text-anchor="start" x="170.05" y="-163.2" font-family="Arial" font-size="14.00" fill="#666666">[bigint]</text>
<polygon fill="none" stroke="black" points="43.2,-120.2 43.2,-151 291.17,-151 291.17,-120.2 43.2,-120.2"/>
<text text-anchor="start" x="50.2" y="-132.4" font-family="Arial" font-size="14.00">created_by </text>
<text text-anchor="start" x="123.36" y="-132.4" font-family="Arial" font-size="14.00" fill="#666666">[bigint]</text>
<polygon fill="none" stroke="black" points="43.2,-89.4 43.2,-120.2 291.17,-120.2 291.17,-89.4 43.2,-89.4"/>
<text text-anchor="start" x="50.2" y="-101.6" font-family="Arial" font-size="14.00">updated_by </text>
<text text-anchor="start" x="127.27" y="-101.6" font-family="Arial" font-size="14.00" fill="#666666">[bigint]</text>
</g>
<!-- public.invoice_items&#45;&gt;public.invoices -->
<g id="edge1" class="edge">
<title>public.invoice_items:invoice_id&#45;&gt;public.invoices:id</title>
<path fill="none" stroke="black" d="M760.48,-650.74C548.15,-648.21 481.95,-566.07 343.18,-399.2 300.73,-348.15 358.56,-258.8 292.17,-258.8"/>
<polygon fill="black" stroke="black" points="760.37,-650.74 770.34,-655.3 765.7,-650.77 770.03,-650.8 770.03,-650.8 770.03,-650.8 765.7,-650.77 770.4,-646.3 760.37,-650.74"/>
</g>
<!-- public.quotation_items -->
<g id="node3" class="node">
<title>public.quotation_items</title>
<polygon fill="#efefef" stroke="none" points="395.2,-320.4 395.2,-356 699.17,-356 699.17,-320.4 395.2,-320.4"/>
<polygon fill="none" stroke="black" points="395.2,-320.4 395.2,-356 699.17,-356 699.17,-320.4 395.2,-320.4"/>
<text text-anchor="start" x="402.2" y="-333.8" font-family="Arial Bold" font-size="18.00">public.quotation_items</text>
<text text-anchor="start" x="567.68" y="-333.8" font-family="Arial" font-size="14.00">    </text>
<text text-anchor="start" x="598.8" y="-333.8" font-family="Arial" font-size="14.00" fill="#666666">[BASE TABLE]</text>
<polygon fill="none" stroke="black" points="395.2,-289.6 395.2,-320.4 699.17,-320.4 699.17,-289.6 395.2,-289.6"/>
<text text-anchor="start" x="402.2" y="-301.8" font-family="Arial" font-size="14.00">id </text>
<text text-anchor="start" x="416.98" y="-301.8" font-family="Arial" font-size="14.00" fill="#666666">[bigint]</text>
<polygon fill="none" stroke="black" points="395.2,-258.8 395.2,-289.6 699.17,-289.6 699.17,-258.8 395.2,-258.8"/>
<text text-anchor="start" x="402.2" y="-271" font-family="Arial" font-size="14.00">quotation_id </text>
<text text-anchor="start" x="482.38" y="-271" font-family="Arial" font-size="14.00" fill="#666666">[bigint]</text>
<polygon fill="none" stroke="black" points="395.2,-228 395.2,-258.8 699.17,-258.8 699.17,-228 395.2,-228"/>
<text text-anchor="start" x="402.2" y="-240.2" font-family="Arial" font-size="14.00">requested_item_id </text>
<text text-anchor="start" x="521.27" y="-240.2" font-family="Arial" font-size="14.00" fill="#666666">[bigint]</text>
<polygon fill="none" stroke="black" points="395.2,-197.2 395.2,-228 699.17,-228 699.17,-197.2 395.2,-197.2"/>
<text text-anchor="start" x="402.2" y="-209.4" font-family="Arial" font-size="14.00">offered_item_id </text>
<text text-anchor="start" x="502.59" y="-209.4" font-family="Arial" font-size="14.00" fill="#666666">[bigint]</text>
<polygon fill="none" stroke="black" points="395.2,-166.4 395.2,-197.2 699.17,-197.2 699.17,-166.4 395.2,-166.4"/>
<text text-anchor="start" x="402.2" y="-178.6" font-family="Arial" font-size="14.00">vendor_product_id </text>
<text text-anchor="start" x="522.06" y="-178.6" font-family="Arial" font-size="14.00" fill="#666666">[bigint]</text>
<polygon fill="none" stroke="black" points="395.2,-135.6 395.2,-166.4 699.17,-166.4 699.17,-135.6 395.2,-135.6"/>
<text text-anchor="start" x="402.2" y="-147.8" font-family="Arial" font-size="14.00">unit_id </text>
<text text-anchor="start" x="447.34" y="-147.8" font-family="Arial" font-size="14.00" fill="#666666">[smallint]</text>
<polygon fill="none" stroke="black" points="395.2,-104.8 395.2,-135.6 699.17,-135.6 699.17,-104.8 395.2,-104.8"/>
<text text-anchor="start" x="402.2" y="-117" font-family="Arial" font-size="14.00">created_by </text>
<text text-anchor="start" x="475.36" y="-117" font-family="Arial" font-size="14.00" fill="#666666">[bigint]</text>
<polygon fill="none" stroke="black" points="395.2,-74 395.2,-104.8 699.17,-104.8 699.17,-74 395.2,-74"/>
<text text-anchor="start" x="402.2" y="-86.2" font-family="Arial" font-size="14.00">updated_by </text>
<text text-anchor="start" x="479.27" y="-86.2" font-family="Arial" font-size="14.00" fill="#666666">[bigint]</text>
<polygon fill="none" stroke="black" points="395.2,-43.2 395.2,-74 699.17,-74 699.17,-43.2 395.2,-43.2"/>
<text text-anchor="start" x="402.2" y="-55.4" font-family="Arial" font-size="14.00">request_id </text>
<text text-anchor="start" x="471.47" y="-55.4" font-family="Arial" font-size="14.00" fill="#666666">[bigint]</text>
</g>
<!-- public.invoice_items&#45;&gt;public.quotation_items -->
<g id="edge2" class="edge">
<title>public.invoice_items:quotation_item_id&#45;&gt;public.quotation_items:id</title>
<path fill="none" stroke="black" d="M760.86,-617.65C706,-588.82 768.26,-305 700.17,-305"/>
<polygon fill="black" stroke="black" points="760.65,-617.6 769.33,-624.3 765.84,-618.84 770.05,-619.84 770.05,-619.84 770.05,-619.84 765.84,-618.84 771.43,-615.55 760.65,-617.6"/>
</g>
<!-- public.users -->
<g id="node4" class="node">
<title>public.users</title>
<polygon fill="#efefef" stroke="none" points="803.7,-228 803.7,-263.6 1028.67,-263.6 1028.67,-228 803.7,-228"/>
<polygon fill="none" stroke="black" points="803.7,-228 803.7,-263.6 1028.67,-263.6 1028.67,-228 803.7,-228"/>
<text text-anchor="start" x="810.7" y="-241.4" font-family="Arial Bold" font-size="18.00">public.users</text>
<text text-anchor="start" x="897.18" y="-241.4" font-family="Arial" font-size="14.00">    </text>
<text text-anchor="start" x="928.3" y="-241.4" font-family="Arial" font-size="14.00" fill="#666666">[BASE TABLE]</text>
<polygon fill="none" stroke="black" points="803.7,-197.2 803.7,-228 1028.67,-228 1028.67,-197.2 803.7,-197.2"/>
<text text-anchor="start" x="810.7" y="-209.4" font-family="Arial" font-size="14.00">id </text>
<text text-anchor="start" x="825.48" y="-209.4" font-family="Arial" font-size="14.00" fill="#666666">[bigint]</text>
<polygon fill="none" stroke="black" points="803.7,-166.4 803.7,-197.2 1028.67,-197.2 1028.67,-166.4 803.7,-166.4"/>
<text text-anchor="start" x="810.7" y="-178.6" font-family="Arial" font-size="14.00">created_by </text>
<text text-anchor="start" x="883.85" y="-178.6" font-family="Arial" font-size="14.00" fill="#666666">[bigint]</text>
<polygon fill="none" stroke="black" points="803.7,-135.6 803.7,-166.4 1028.67,-166.4 1028.67,-135.6 803.7,-135.6"/>
<text text-anchor="start" x="810.7" y="-147.8" font-family="Arial" font-size="14.00">updated_by </text>
<text text-anchor="start" x="887.76" y="-147.8" font-family="Arial" font-size="14.00" fill="#666666">[bigint]</text>
</g>
<!-- public.invoice_items&#45;&gt;public.users -->
<g id="edge3" class="edge">
<title>public.invoice_items:created_by&#45;&gt;public.users:id</title>
<path fill="none" stroke="black" d="M1070,-582.98C1098.73,-534.01 1068.47,-212.6 1029.67,-212.6"/>
<polygon fill="black" stroke="black" points="1069.94,-583.02 1059.24,-585.39 1065.67,-586.21 1062.2,-588.8 1062.2,-588.8 1062.2,-588.8 1065.67,-586.21 1064.62,-592.61 1069.94,-583.02"/>
</g>
<!-- public.invoice_items&#45;&gt;public.users -->
<g id="edge4" class="edge">
<title>public.invoice_items:updated_by&#45;&gt;public.users:id</title>
<path fill="none" stroke="black" d="M1069.61,-552.1C1095.08,-505.24 1065.17,-212.6 1029.67,-212.6"/>
<polygon fill="black" stroke="black" points="1069.76,-551.98 1059.13,-554.67 1065.58,-555.29 1062.19,-557.98 1062.19,-557.98 1062.19,-557.98 1065.58,-555.29 1064.72,-561.72 1069.76,-551.98"/>
</g>
<!-- public.items -->
<g id="node5" class="node">
<title>public.items</title>
<polygon fill="#efefef" stroke="none" points="1132.69,-243.4 1132.69,-279 1359.67,-279 1359.67,-243.4 1132.69,-243.4"/>
<polygon fill="none" stroke="black" points="1132.69,-243.4 1132.69,-279 1359.67,-279 1359.67,-243.4 1132.69,-243.4"/>
<text text-anchor="start" x="1139.69" y="-256.8" font-family="Arial Bold" font-size="18.00">public.items</text>
<text text-anchor="start" x="1228.18" y="-256.8" font-family="Arial" font-size="14.00">    </text>
<text text-anchor="start" x="1259.3" y="-256.8" font-family="Arial" font-size="14.00" fill="#666666">[BASE TABLE]</text>
<polygon fill="none" stroke="black" points="1132.69,-212.6 1132.69,-243.4 1359.67,-243.4 1359.67,-212.6 1132.69,-212.6"/>
<text text-anchor="start" x="1139.69" y="-224.8" font-family="Arial" font-size="14.00">id </text>
<text text-anchor="start" x="1154.48" y="-224.8" font-family="Arial" font-size="14.00" fill="#666666">[bigint]</text>
<polygon fill="none" stroke="black" points="1132.69,-181.8 1132.69,-212.6 1359.67,-212.6 1359.67,-181.8 1132.69,-181.8"/>
<text text-anchor="start" x="1139.69" y="-194" font-family="Arial" font-size="14.00">default_unit_id </text>
<text text-anchor="start" x="1234.66" y="-194" font-family="Arial" font-size="14.00" fill="#666666">[smallint]</text>
<polygon fill="none" stroke="black" points="1132.69,-151 1132.69,-181.8 1359.67,-181.8 1359.67,-151 1132.69,-151"/>
<text text-anchor="start" x="1139.69" y="-163.2" font-family="Arial" font-size="14.00">created_by </text>
<text text-anchor="start" x="1212.85" y="-163.2" font-family="Arial" font-size="14.00" fill="#666666">[bigint]</text>
<polygon fill="none" stroke="black" points="1132.69,-120.2 1132.69,-151 1359.67,-151 1359.67,-120.2 1132.69,-120.2"/>
<text text-anchor="start" x="1139.69" y="-132.4" font-family="Arial" font-size="14.00">updated_by </text>
<text text-anchor="start" x="1216.76" y="-132.4" font-family="Arial" font-size="14.00" fill="#666666">[bigint]</text>
</g>
<!-- public.invoice_items&#45;&gt;public.items -->
<g id="edge5" class="edge">
<title>public.invoice_items:offered_item_id&#45;&gt;public.items:id</title>
<path fill="none" stroke="black" d="M1071.78,-526.99C1187.91,-512.01 998.55,-228 1131.69,-228"/>
<polygon fill="black" stroke="black" points="1071.98,-526.97 1061.72,-523.09 1066.65,-527.3 1062.33,-527.56 1062.33,-527.56 1062.33,-527.56 1066.65,-527.3 1062.27,-532.07 1071.98,-526.97"/>
</g>
<!-- public.units -->
<g id="node6" class="node">
<title>public.units</title>
<polygon fill="#efefef" stroke="none" points="1463.69,-197.2 1463.69,-232.8 1686.68,-232.8 1686.68,-197.2 1463.69,-197.2"/>
<polygon fill="none" stroke="black" points="1463.69,-197.2 1463.69,-232.8 1686.68,-232.8 1686.68,-197.2 1463.69,-197.2"/>
<text text-anchor="start" x="1470.69" y="-210.6" font-family="Arial Bold" font-size="18.00">public.units</text>
<text text-anchor="start" x="1555.19" y="-210.6" font-family="Arial" font-size="14.00">    </text>
<text text-anchor="start" x="1586.3" y="-210.6" font-family="Arial" font-size="14.00" fill="#666666">[BASE TABLE]</text>
<polygon fill="none" stroke="black" points="1463.69,-166.4 1463.69,-197.2 1686.68,-197.2 1686.68,-166.4 1463.69,-166.4"/>
<text text-anchor="start" x="1470.69" y="-178.6" font-family="Arial" font-size="14.00">id </text>
<text text-anchor="start" x="1485.48" y="-178.6" font-family="Arial" font-size="14.00" fill="#666666">[smallint]</text>
</g>
<!-- public.invoice_items&#45;&gt;public.units -->
<g id="edge6" class="edge">
<title>public.invoice_items:unit_id&#45;&gt;public.units:id</title>
<path fill="none" stroke="black" d="M1071.99,-496.61C1159.38,-493.63 1358.5,-455.26 1412.18,-399.2 1480.79,-327.56 1363.49,-181.8 1462.69,-181.8"/>
<polygon fill="black" stroke="black" points="1071.99,-496.61 1061.91,-492.29 1066.66,-496.71 1062.33,-496.79 1062.33,-496.79 1062.33,-496.79 1066.66,-496.71 1062.08,-501.29 1071.99,-496.61"/>
</g>
</g>
</svg>
