<?xml version="1.0" encoding="UTF-8" standalone="no"?>
<!DOCTYPE svg PUBLIC "-//W3C//DTD SVG 1.1//EN"
 "http://www.w3.org/Graphics/SVG/1.1/DTD/svg11.dtd">
<!-- Generated by graphviz version 12.1.2 (20240928.0832)
 -->
<!-- Title: public.quotation_items Pages: 1 -->
<svg width="2226pt" height="1099pt"
 viewBox="0.00 0.00 2226.36 1098.80" xmlns="http://www.w3.org/2000/svg" xmlns:xlink="http://www.w3.org/1999/xlink">
<g id="graph0" class="graph" transform="scale(1 1) rotate(0) translate(4 1094.8)">
<title>public.quotation_items</title>
<polygon fill="white" stroke="none" points="-4,4 -4,-1094.8 2222.36,-1094.8 2222.36,4 -4,4"/>
<!-- public.quotation_items -->
<g id="node1" class="node">
<title>public.quotation_items</title>
<polygon fill="#efefef" stroke="none" points="928.7,-666.2 928.7,-701.8 1232.67,-701.8 1232.67,-666.2 928.7,-666.2"/>
<polygon fill="none" stroke="black" points="928.7,-666.2 928.7,-701.8 1232.67,-701.8 1232.67,-666.2 928.7,-666.2"/>
<text text-anchor="start" x="935.7" y="-679.6" font-family="Arial Bold" font-size="18.00">public.quotation_items</text>
<text text-anchor="start" x="1101.18" y="-679.6" font-family="Arial" font-size="14.00">    </text>
<text text-anchor="start" x="1132.3" y="-679.6" font-family="Arial" font-size="14.00" fill="#666666">[BASE TABLE]</text>
<polygon fill="none" stroke="black" points="928.7,-635.4 928.7,-666.2 1232.67,-666.2 1232.67,-635.4 928.7,-635.4"/>
<text text-anchor="start" x="935.7" y="-647.6" font-family="Arial" font-size="14.00">id </text>
<text text-anchor="start" x="950.49" y="-647.6" font-family="Arial" font-size="14.00" fill="#666666">[bigint]</text>
<polygon fill="none" stroke="black" points="928.7,-604.6 928.7,-635.4 1232.67,-635.4 1232.67,-604.6 928.7,-604.6"/>
<text text-anchor="start" x="935.7" y="-616.8" font-family="Arial" font-size="14.00">quotation_id </text>
<text text-anchor="start" x="1015.88" y="-616.8" font-family="Arial" font-size="14.00" fill="#666666">[bigint]</text>
<polygon fill="none" stroke="black" points="928.7,-573.8 928.7,-604.6 1232.67,-604.6 1232.67,-573.8 928.7,-573.8"/>
<text text-anchor="start" x="935.7" y="-586" font-family="Arial" font-size="14.00">requested_item_id </text>
<text text-anchor="start" x="1054.78" y="-586" font-family="Arial" font-size="14.00" fill="#666666">[bigint]</text>
<polygon fill="none" stroke="black" points="928.7,-543 928.7,-573.8 1232.67,-573.8 1232.67,-543 928.7,-543"/>
<text text-anchor="start" x="935.7" y="-555.2" font-family="Arial" font-size="14.00">offered_item_id </text>
<text text-anchor="start" x="1036.1" y="-555.2" font-family="Arial" font-size="14.00" fill="#666666">[bigint]</text>
<polygon fill="none" stroke="black" points="928.7,-512.2 928.7,-543 1232.67,-543 1232.67,-512.2 928.7,-512.2"/>
<text text-anchor="start" x="935.7" y="-524.4" font-family="Arial" font-size="14.00">vendor_product_id </text>
<text text-anchor="start" x="1055.57" y="-524.4" font-family="Arial" font-size="14.00" fill="#666666">[bigint]</text>
<polygon fill="none" stroke="black" points="928.7,-481.4 928.7,-512.2 1232.67,-512.2 1232.67,-481.4 928.7,-481.4"/>
<text text-anchor="start" x="935.7" y="-493.6" font-family="Arial" font-size="14.00">unit_id </text>
<text text-anchor="start" x="980.85" y="-493.6" font-family="Arial" font-size="14.00" fill="#666666">[smallint]</text>
<polygon fill="none" stroke="black" points="928.7,-450.6 928.7,-481.4 1232.67,-481.4 1232.67,-450.6 928.7,-450.6"/>
<text text-anchor="start" x="935.7" y="-462.8" font-family="Arial" font-size="14.00">created_by </text>
<text text-anchor="start" x="1008.86" y="-462.8" font-family="Arial" font-size="14.00" fill="#666666">[bigint]</text>
<polygon fill="none" stroke="black" points="928.7,-419.8 928.7,-450.6 1232.67,-450.6 1232.67,-419.8 928.7,-419.8"/>
<text text-anchor="start" x="935.7" y="-432" font-family="Arial" font-size="14.00">updated_by </text>
<text text-anchor="start" x="1012.77" y="-432" font-family="Arial" font-size="14.00" fill="#666666">[bigint]</text>
<polygon fill="none" stroke="black" points="928.7,-389 928.7,-419.8 1232.67,-419.8 1232.67,-389 928.7,-389"/>
<text text-anchor="start" x="935.7" y="-401.2" font-family="Arial" font-size="14.00">request_id </text>
<text text-anchor="start" x="1004.97" y="-401.2" font-family="Arial" font-size="14.00" fill="#666666">[bigint]</text>
<polygon fill="none" stroke="black" stroke-width="3" points="927.2,-387.5 927.2,-703.3 1234.17,-703.3 1234.17,-387.5 927.2,-387.5"/>
</g>
<!-- public.quotations -->
<g id="node4" class="node">
<title>public.quotations</title>
<polygon fill="#efefef" stroke="none" points="43.2,-228 43.2,-263.6 306.18,-263.6 306.18,-228 43.2,-228"/>
<polygon fill="none" stroke="black" points="43.2,-228 43.2,-263.6 306.18,-263.6 306.18,-228 43.2,-228"/>
<text text-anchor="start" x="50.2" y="-241.4" font-family="Arial Bold" font-size="18.00">public.quotations</text>
<text text-anchor="start" x="174.69" y="-241.4" font-family="Arial" font-size="14.00">    </text>
<text text-anchor="start" x="205.81" y="-241.4" font-family="Arial" font-size="14.00" fill="#666666">[BASE TABLE]</text>
<polygon fill="none" stroke="black" points="43.2,-197.2 43.2,-228 306.18,-228 306.18,-197.2 43.2,-197.2"/>
<text text-anchor="start" x="50.2" y="-209.4" font-family="Arial" font-size="14.00">id </text>
<text text-anchor="start" x="64.99" y="-209.4" font-family="Arial" font-size="14.00" fill="#666666">[bigint]</text>
<polygon fill="none" stroke="black" points="43.2,-166.4 43.2,-197.2 306.18,-197.2 306.18,-166.4 43.2,-166.4"/>
<text text-anchor="start" x="50.2" y="-178.6" font-family="Arial" font-size="14.00">parent_id </text>
<text text-anchor="start" x="112.47" y="-178.6" font-family="Arial" font-size="14.00" fill="#666666">[bigint]</text>
<polygon fill="none" stroke="black" points="43.2,-135.6 43.2,-166.4 306.18,-166.4 306.18,-135.6 43.2,-135.6"/>
<text text-anchor="start" x="50.2" y="-147.8" font-family="Arial" font-size="14.00">company_client_id </text>
<text text-anchor="start" x="170.05" y="-147.8" font-family="Arial" font-size="14.00" fill="#666666">[bigint]</text>
<polygon fill="none" stroke="black" points="43.2,-104.8 43.2,-135.6 306.18,-135.6 306.18,-104.8 43.2,-104.8"/>
<text text-anchor="start" x="50.2" y="-117" font-family="Arial" font-size="14.00">contact_id </text>
<text text-anchor="start" x="117.91" y="-117" font-family="Arial" font-size="14.00" fill="#666666">[bigint]</text>
<polygon fill="none" stroke="black" points="43.2,-74 43.2,-104.8 306.18,-104.8 306.18,-74 43.2,-74"/>
<text text-anchor="start" x="50.2" y="-86.2" font-family="Arial" font-size="14.00">created_by </text>
<text text-anchor="start" x="123.36" y="-86.2" font-family="Arial" font-size="14.00" fill="#666666">[bigint]</text>
<polygon fill="none" stroke="black" points="43.2,-43.2 43.2,-74 306.18,-74 306.18,-43.2 43.2,-43.2"/>
<text text-anchor="start" x="50.2" y="-55.4" font-family="Arial" font-size="14.00">updated_by </text>
<text text-anchor="start" x="127.27" y="-55.4" font-family="Arial" font-size="14.00" fill="#666666">[bigint]</text>
</g>
<!-- public.quotation_items&#45;&gt;public.quotations -->
<g id="edge3" class="edge">
<title>public.quotation_items:quotation_id&#45;&gt;public.quotations:id</title>
<path fill="none" stroke="black" d="M917.63,-619.96C636.8,-617.46 558.66,-509.83 357.69,-306.8 324.27,-273.04 354.68,-212.6 307.18,-212.6"/>
<polygon fill="black" stroke="black" points="917.37,-619.95 927.35,-624.5 922.7,-619.98 927.03,-620 927.03,-620 927.03,-620 922.7,-619.98 927.39,-615.5 917.37,-619.95"/>
</g>
<!-- public.items -->
<g id="node5" class="node">
<title>public.items</title>
<polygon fill="#efefef" stroke="none" points="410.2,-197.2 410.2,-232.8 637.18,-232.8 637.18,-197.2 410.2,-197.2"/>
<polygon fill="none" stroke="black" points="410.2,-197.2 410.2,-232.8 637.18,-232.8 637.18,-197.2 410.2,-197.2"/>
<text text-anchor="start" x="417.2" y="-210.6" font-family="Arial Bold" font-size="18.00">public.items</text>
<text text-anchor="start" x="505.69" y="-210.6" font-family="Arial" font-size="14.00">    </text>
<text text-anchor="start" x="536.81" y="-210.6" font-family="Arial" font-size="14.00" fill="#666666">[BASE TABLE]</text>
<polygon fill="none" stroke="black" points="410.2,-166.4 410.2,-197.2 637.18,-197.2 637.18,-166.4 410.2,-166.4"/>
<text text-anchor="start" x="417.2" y="-178.6" font-family="Arial" font-size="14.00">id </text>
<text text-anchor="start" x="431.99" y="-178.6" font-family="Arial" font-size="14.00" fill="#666666">[bigint]</text>
<polygon fill="none" stroke="black" points="410.2,-135.6 410.2,-166.4 637.18,-166.4 637.18,-135.6 410.2,-135.6"/>
<text text-anchor="start" x="417.2" y="-147.8" font-family="Arial" font-size="14.00">default_unit_id </text>
<text text-anchor="start" x="512.16" y="-147.8" font-family="Arial" font-size="14.00" fill="#666666">[smallint]</text>
<polygon fill="none" stroke="black" points="410.2,-104.8 410.2,-135.6 637.18,-135.6 637.18,-104.8 410.2,-104.8"/>
<text text-anchor="start" x="417.2" y="-117" font-family="Arial" font-size="14.00">created_by </text>
<text text-anchor="start" x="490.36" y="-117" font-family="Arial" font-size="14.00" fill="#666666">[bigint]</text>
<polygon fill="none" stroke="black" points="410.2,-74 410.2,-104.8 637.18,-104.8 637.18,-74 410.2,-74"/>
<text text-anchor="start" x="417.2" y="-86.2" font-family="Arial" font-size="14.00">updated_by </text>
<text text-anchor="start" x="494.27" y="-86.2" font-family="Arial" font-size="14.00" fill="#666666">[bigint]</text>
</g>
<!-- public.quotation_items&#45;&gt;public.items -->
<g id="edge4" class="edge">
<title>public.quotation_items:requested_item_id&#45;&gt;public.items:id</title>
<path fill="none" stroke="black" d="M917.35,-589.01C763.68,-583.11 771.85,-444.54 688.69,-306.8 657.72,-255.51 698.1,-181.8 638.18,-181.8"/>
<polygon fill="black" stroke="black" points="917.37,-589.01 927.28,-593.69 922.7,-589.11 927.04,-589.19 927.04,-589.19 927.04,-589.19 922.7,-589.11 927.45,-584.69 917.37,-589.01"/>
</g>
<!-- public.quotation_items&#45;&gt;public.items -->
<g id="edge5" class="edge">
<title>public.quotation_items:offered_item_id&#45;&gt;public.items:id</title>
<path fill="none" stroke="black" d="M917.54,-558.22C773.37,-552.92 770.29,-433.58 688.69,-306.8 656.26,-256.41 698.1,-181.8 638.18,-181.8"/>
<polygon fill="black" stroke="black" points="917.37,-558.21 927.29,-562.89 922.7,-558.31 927.04,-558.39 927.04,-558.39 927.04,-558.39 922.7,-558.31 927.45,-553.89 917.37,-558.21"/>
</g>
<!-- public.vendor_products -->
<g id="node6" class="node">
<title>public.vendor_products</title>
<polygon fill="#efefef" stroke="none" points="741.21,-212.6 741.21,-248.2 1050.17,-248.2 1050.17,-212.6 741.21,-212.6"/>
<polygon fill="none" stroke="black" points="741.21,-212.6 741.21,-248.2 1050.17,-248.2 1050.17,-212.6 741.21,-212.6"/>
<text text-anchor="start" x="748.21" y="-226" font-family="Arial Bold" font-size="18.00">public.vendor_products</text>
<text text-anchor="start" x="918.68" y="-226" font-family="Arial" font-size="14.00">    </text>
<text text-anchor="start" x="949.79" y="-226" font-family="Arial" font-size="14.00" fill="#666666">[BASE TABLE]</text>
<polygon fill="none" stroke="black" points="741.21,-181.8 741.21,-212.6 1050.17,-212.6 1050.17,-181.8 741.21,-181.8"/>
<text text-anchor="start" x="748.21" y="-194" font-family="Arial" font-size="14.00">id </text>
<text text-anchor="start" x="763" y="-194" font-family="Arial" font-size="14.00" fill="#666666">[bigint]</text>
<polygon fill="none" stroke="black" points="741.21,-151 741.21,-181.8 1050.17,-181.8 1050.17,-151 741.21,-151"/>
<text text-anchor="start" x="748.21" y="-163.2" font-family="Arial" font-size="14.00">vendor_id </text>
<text text-anchor="start" x="813.59" y="-163.2" font-family="Arial" font-size="14.00" fill="#666666">[bigint]</text>
<polygon fill="none" stroke="black" points="741.21,-120.2 741.21,-151 1050.17,-151 1050.17,-120.2 741.21,-120.2"/>
<text text-anchor="start" x="748.21" y="-132.4" font-family="Arial" font-size="14.00">item_id </text>
<text text-anchor="start" x="797.23" y="-132.4" font-family="Arial" font-size="14.00" fill="#666666">[bigint]</text>
<polygon fill="none" stroke="black" points="741.21,-89.4 741.21,-120.2 1050.17,-120.2 1050.17,-89.4 741.21,-89.4"/>
<text text-anchor="start" x="748.21" y="-101.6" font-family="Arial" font-size="14.00">created_by </text>
<text text-anchor="start" x="821.37" y="-101.6" font-family="Arial" font-size="14.00" fill="#666666">[bigint]</text>
<polygon fill="none" stroke="black" points="741.21,-58.6 741.21,-89.4 1050.17,-89.4 1050.17,-58.6 741.21,-58.6"/>
<text text-anchor="start" x="748.21" y="-70.8" font-family="Arial" font-size="14.00">updated_by </text>
<text text-anchor="start" x="825.28" y="-70.8" font-family="Arial" font-size="14.00" fill="#666666">[bigint]</text>
</g>
<!-- public.quotation_items&#45;&gt;public.vendor_products -->
<g id="edge6" class="edge">
<title>public.quotation_items:vendor_product_id&#45;&gt;public.vendor_products:id</title>
<path fill="none" stroke="black" d="M917.35,-526.91C848.96,-517.23 885.19,-408.07 928.7,-342.8 961.22,-294.03 1017.53,-340.09 1050.17,-291.4 1073.48,-256.62 1093.03,-197.2 1051.17,-197.2"/>
<polygon fill="black" stroke="black" points="917.39,-526.91 927.07,-532.07 922.71,-527.27 927.04,-527.56 927.04,-527.56 927.04,-527.56 922.71,-527.27 927.67,-523.09 917.39,-526.91"/>
</g>
<!-- public.units -->
<g id="node7" class="node">
<title>public.units</title>
<polygon fill="#efefef" stroke="none" points="1154.2,-151 1154.2,-186.6 1377.18,-186.6 1377.18,-151 1154.2,-151"/>
<polygon fill="none" stroke="black" points="1154.2,-151 1154.2,-186.6 1377.18,-186.6 1377.18,-151 1154.2,-151"/>
<text text-anchor="start" x="1161.2" y="-164.4" font-family="Arial Bold" font-size="18.00">public.units</text>
<text text-anchor="start" x="1245.69" y="-164.4" font-family="Arial" font-size="14.00">    </text>
<text text-anchor="start" x="1276.81" y="-164.4" font-family="Arial" font-size="14.00" fill="#666666">[BASE TABLE]</text>
<polygon fill="none" stroke="black" points="1154.2,-120.2 1154.2,-151 1377.18,-151 1377.18,-120.2 1154.2,-120.2"/>
<text text-anchor="start" x="1161.2" y="-132.4" font-family="Arial" font-size="14.00">id </text>
<text text-anchor="start" x="1175.98" y="-132.4" font-family="Arial" font-size="14.00" fill="#666666">[smallint]</text>
</g>
<!-- public.quotation_items&#45;&gt;public.units -->
<g id="edge7" class="edge">
<title>public.quotation_items:unit_id&#45;&gt;public.units:id</title>
<path fill="none" stroke="black" d="M1244.08,-496.48C1393.71,-486.76 1163.93,-260.3 1154.2,-229.8 1141.47,-189.91 1111.33,-135.6 1153.2,-135.6"/>
<polygon fill="black" stroke="black" points="1244,-496.48 1233.87,-492.29 1238.67,-496.65 1234.34,-496.78 1234.34,-496.78 1234.34,-496.78 1238.67,-496.65 1234.15,-501.29 1244,-496.48"/>
</g>
<!-- public.users -->
<g id="node8" class="node">
<title>public.users</title>
<polygon fill="#efefef" stroke="none" points="1481.2,-181.8 1481.2,-217.4 1706.18,-217.4 1706.18,-181.8 1481.2,-181.8"/>
<polygon fill="none" stroke="black" points="1481.2,-181.8 1481.2,-217.4 1706.18,-217.4 1706.18,-181.8 1481.2,-181.8"/>
<text text-anchor="start" x="1488.2" y="-195.2" font-family="Arial Bold" font-size="18.00">public.users</text>
<text text-anchor="start" x="1574.69" y="-195.2" font-family="Arial" font-size="14.00">    </text>
<text text-anchor="start" x="1605.8" y="-195.2" font-family="Arial" font-size="14.00" fill="#666666">[BASE TABLE]</text>
<polygon fill="none" stroke="black" points="1481.2,-151 1481.2,-181.8 1706.18,-181.8 1706.18,-151 1481.2,-151"/>
<text text-anchor="start" x="1488.2" y="-163.2" font-family="Arial" font-size="14.00">id </text>
<text text-anchor="start" x="1502.99" y="-163.2" font-family="Arial" font-size="14.00" fill="#666666">[bigint]</text>
<polygon fill="none" stroke="black" points="1481.2,-120.2 1481.2,-151 1706.18,-151 1706.18,-120.2 1481.2,-120.2"/>
<text text-anchor="start" x="1488.2" y="-132.4" font-family="Arial" font-size="14.00">created_by </text>
<text text-anchor="start" x="1561.36" y="-132.4" font-family="Arial" font-size="14.00" fill="#666666">[bigint]</text>
<polygon fill="none" stroke="black" points="1481.2,-89.4 1481.2,-120.2 1706.18,-120.2 1706.18,-89.4 1481.2,-89.4"/>
<text text-anchor="start" x="1488.2" y="-101.6" font-family="Arial" font-size="14.00">updated_by </text>
<text text-anchor="start" x="1565.27" y="-101.6" font-family="Arial" font-size="14.00" fill="#666666">[bigint]</text>
</g>
<!-- public.quotation_items&#45;&gt;public.users -->
<g id="edge8" class="edge">
<title>public.quotation_items:created_by&#45;&gt;public.users:id</title>
<path fill="none" stroke="black" d="M1243.93,-465.8C1347.13,-461.75 1366.78,-395.48 1429.69,-306.8 1468.06,-252.71 1413.89,-166.4 1480.2,-166.4"/>
<polygon fill="black" stroke="black" points="1244.01,-465.8 1233.92,-461.49 1238.67,-465.9 1234.34,-465.99 1234.34,-465.99 1234.34,-465.99 1238.67,-465.9 1234.09,-470.49 1244.01,-465.8"/>
</g>
<!-- public.quotation_items&#45;&gt;public.users -->
<g id="edge9" class="edge">
<title>public.quotation_items:updated_by&#45;&gt;public.users:id</title>
<path fill="none" stroke="black" d="M1244.09,-435.04C1339.73,-431.97 1367.38,-385.76 1429.69,-306.8 1470.77,-254.74 1413.89,-166.4 1480.2,-166.4"/>
<polygon fill="black" stroke="black" points="1244.01,-435.04 1233.94,-430.7 1238.67,-435.12 1234.34,-435.19 1234.34,-435.19 1234.34,-435.19 1238.67,-435.12 1234.08,-439.69 1244.01,-435.04"/>
</g>
<!-- public.quotation_item_requests -->
<g id="node9" class="node">
<title>public.quotation_item_requests</title>
<polygon fill="#efefef" stroke="none" points="1810.21,-228 1810.21,-263.6 2175.16,-263.6 2175.16,-228 1810.21,-228"/>
<polygon fill="none" stroke="black" points="1810.21,-228 1810.21,-263.6 2175.16,-263.6 2175.16,-228 1810.21,-228"/>
<text text-anchor="start" x="1817.21" y="-241.4" font-family="Arial Bold" font-size="18.00">public.quotation_item_requests</text>
<text text-anchor="start" x="2043.67" y="-241.4" font-family="Arial" font-size="14.00">    </text>
<text text-anchor="start" x="2074.79" y="-241.4" font-family="Arial" font-size="14.00" fill="#666666">[BASE TABLE]</text>
<polygon fill="none" stroke="black" points="1810.21,-197.2 1810.21,-228 2175.16,-228 2175.16,-197.2 1810.21,-197.2"/>
<text text-anchor="start" x="1817.21" y="-209.4" font-family="Arial" font-size="14.00">id </text>
<text text-anchor="start" x="1832" y="-209.4" font-family="Arial" font-size="14.00" fill="#666666">[bigint]</text>
<polygon fill="none" stroke="black" points="1810.21,-166.4 1810.21,-197.2 2175.16,-197.2 2175.16,-166.4 1810.21,-166.4"/>
<text text-anchor="start" x="1817.21" y="-178.6" font-family="Arial" font-size="14.00">quotation_id </text>
<text text-anchor="start" x="1897.39" y="-178.6" font-family="Arial" font-size="14.00" fill="#666666">[bigint]</text>
<polygon fill="none" stroke="black" points="1810.21,-135.6 1810.21,-166.4 2175.16,-166.4 2175.16,-135.6 1810.21,-135.6"/>
<text text-anchor="start" x="1817.21" y="-147.8" font-family="Arial" font-size="14.00">matched_item_id </text>
<text text-anchor="start" x="1927.72" y="-147.8" font-family="Arial" font-size="14.00" fill="#666666">[bigint]</text>
<polygon fill="none" stroke="black" points="1810.21,-104.8 1810.21,-135.6 2175.16,-135.6 2175.16,-104.8 1810.21,-104.8"/>
<text text-anchor="start" x="1817.21" y="-117" font-family="Arial" font-size="14.00">reviewed_by </text>
<text text-anchor="start" x="1899.7" y="-117" font-family="Arial" font-size="14.00" fill="#666666">[bigint]</text>
<polygon fill="none" stroke="black" points="1810.21,-74 1810.21,-104.8 2175.16,-104.8 2175.16,-74 1810.21,-74"/>
<text text-anchor="start" x="1817.21" y="-86.2" font-family="Arial" font-size="14.00">created_by </text>
<text text-anchor="start" x="1890.37" y="-86.2" font-family="Arial" font-size="14.00" fill="#666666">[bigint]</text>
<polygon fill="none" stroke="black" points="1810.21,-43.2 1810.21,-74 2175.16,-74 2175.16,-43.2 1810.21,-43.2"/>
<text text-anchor="start" x="1817.21" y="-55.4" font-family="Arial" font-size="14.00">updated_by </text>
<text text-anchor="start" x="1894.28" y="-55.4" font-family="Arial" font-size="14.00" fill="#666666">[bigint]</text>
</g>
<!-- public.quotation_items&#45;&gt;public.quotation_item_requests -->
<g id="edge10" class="edge">
<title>public.quotation_items:request_id&#45;&gt;public.quotation_item_requests:id</title>
<path fill="none" stroke="black" d="M1243.83,-404.34C1369.16,-402.86 1665.5,-374.91 1758.69,-306.8 1797.05,-278.77 1761.71,-212.6 1809.21,-212.6"/>
<polygon fill="black" stroke="black" points="1244.01,-404.34 1233.98,-399.9 1238.67,-404.37 1234.34,-404.4 1234.34,-404.4 1234.34,-404.4 1238.67,-404.37 1234.04,-408.9 1244.01,-404.34"/>
</g>
<!-- public.purchase_order_items -->
<g id="node2" class="node">
<title>public.purchase_order_items</title>
<polygon fill="#efefef" stroke="none" points="696.23,-1012 696.23,-1047.6 1043.15,-1047.6 1043.15,-1012 696.23,-1012"/>
<polygon fill="none" stroke="black" points="696.23,-1012 696.23,-1047.6 1043.15,-1047.6 1043.15,-1012 696.23,-1012"/>
<text text-anchor="start" x="703.23" y="-1025.4" font-family="Arial Bold" font-size="18.00">public.purchase_order_items</text>
<text text-anchor="start" x="911.66" y="-1025.4" font-family="Arial" font-size="14.00">    </text>
<text text-anchor="start" x="942.78" y="-1025.4" font-family="Arial" font-size="14.00" fill="#666666">[BASE TABLE]</text>
<polygon fill="none" stroke="black" points="696.23,-981.2 696.23,-1012 1043.15,-1012 1043.15,-981.2 696.23,-981.2"/>
<text text-anchor="start" x="703.23" y="-993.4" font-family="Arial" font-size="14.00">po_id </text>
<text text-anchor="start" x="741.37" y="-993.4" font-family="Arial" font-size="14.00" fill="#666666">[bigint]</text>
<polygon fill="none" stroke="black" points="696.23,-950.4 696.23,-981.2 1043.15,-981.2 1043.15,-950.4 696.23,-950.4"/>
<text text-anchor="start" x="703.23" y="-962.6" font-family="Arial" font-size="14.00">quotation_item_id </text>
<text text-anchor="start" x="817.64" y="-962.6" font-family="Arial" font-size="14.00" fill="#666666">[bigint]</text>
<polygon fill="none" stroke="black" points="696.23,-919.6 696.23,-950.4 1043.15,-950.4 1043.15,-919.6 696.23,-919.6"/>
<text text-anchor="start" x="703.23" y="-931.8" font-family="Arial" font-size="14.00">offered_item_id </text>
<text text-anchor="start" x="803.62" y="-931.8" font-family="Arial" font-size="14.00" fill="#666666">[bigint]</text>
<polygon fill="none" stroke="black" points="696.23,-888.8 696.23,-919.6 1043.15,-919.6 1043.15,-888.8 696.23,-888.8"/>
<text text-anchor="start" x="703.23" y="-901" font-family="Arial" font-size="14.00">unit_id </text>
<text text-anchor="start" x="748.37" y="-901" font-family="Arial" font-size="14.00" fill="#666666">[smallint]</text>
<polygon fill="none" stroke="black" points="696.23,-858 696.23,-888.8 1043.15,-888.8 1043.15,-858 696.23,-858"/>
<text text-anchor="start" x="703.23" y="-870.2" font-family="Arial" font-size="14.00">created_by </text>
<text text-anchor="start" x="776.39" y="-870.2" font-family="Arial" font-size="14.00" fill="#666666">[bigint]</text>
<polygon fill="none" stroke="black" points="696.23,-827.2 696.23,-858 1043.15,-858 1043.15,-827.2 696.23,-827.2"/>
<text text-anchor="start" x="703.23" y="-839.4" font-family="Arial" font-size="14.00">updated_by </text>
<text text-anchor="start" x="780.3" y="-839.4" font-family="Arial" font-size="14.00" fill="#666666">[bigint]</text>
</g>
<!-- public.purchase_order_items&#45;&gt;public.quotation_items -->
<g id="edge1" class="edge">
<title>public.purchase_order_items:quotation_item_id&#45;&gt;public.quotation_items:id</title>
<path fill="none" stroke="black" d="M1054.35,-965.11C1121.88,-955.41 1088.97,-846.09 1043.15,-784 1011.49,-741.1 960.47,-790.83 928.7,-748 902.97,-713.3 884.5,-650.8 927.7,-650.8"/>
<polygon fill="black" stroke="black" points="1054.46,-965.1 1044.18,-961.29 1049.14,-965.46 1044.82,-965.75 1044.82,-965.75 1044.82,-965.75 1049.14,-965.46 1044.79,-970.27 1054.46,-965.1"/>
</g>
<!-- public.invoice_items -->
<g id="node3" class="node">
<title>public.invoice_items</title>
<polygon fill="#efefef" stroke="none" points="1147.21,-1012 1147.21,-1047.6 1436.17,-1047.6 1436.17,-1012 1147.21,-1012"/>
<polygon fill="none" stroke="black" points="1147.21,-1012 1147.21,-1047.6 1436.17,-1047.6 1436.17,-1012 1147.21,-1012"/>
<text text-anchor="start" x="1154.21" y="-1025.4" font-family="Arial Bold" font-size="18.00">public.invoice_items</text>
<text text-anchor="start" x="1304.68" y="-1025.4" font-family="Arial" font-size="14.00">    </text>
<text text-anchor="start" x="1335.8" y="-1025.4" font-family="Arial" font-size="14.00" fill="#666666">[BASE TABLE]</text>
<polygon fill="none" stroke="black" points="1147.21,-981.2 1147.21,-1012 1436.17,-1012 1436.17,-981.2 1147.21,-981.2"/>
<text text-anchor="start" x="1154.21" y="-993.4" font-family="Arial" font-size="14.00">invoice_id </text>
<text text-anchor="start" x="1220.36" y="-993.4" font-family="Arial" font-size="14.00" fill="#666666">[bigint]</text>
<polygon fill="none" stroke="black" points="1147.21,-950.4 1147.21,-981.2 1436.17,-981.2 1436.17,-950.4 1147.21,-950.4"/>
<text text-anchor="start" x="1154.21" y="-962.6" font-family="Arial" font-size="14.00">quotation_item_id </text>
<text text-anchor="start" x="1268.62" y="-962.6" font-family="Arial" font-size="14.00" fill="#666666">[bigint]</text>
<polygon fill="none" stroke="black" points="1147.21,-919.6 1147.21,-950.4 1436.17,-950.4 1436.17,-919.6 1147.21,-919.6"/>
<text text-anchor="start" x="1154.21" y="-931.8" font-family="Arial" font-size="14.00">created_by </text>
<text text-anchor="start" x="1227.37" y="-931.8" font-family="Arial" font-size="14.00" fill="#666666">[bigint]</text>
<polygon fill="none" stroke="black" points="1147.21,-888.8 1147.21,-919.6 1436.17,-919.6 1436.17,-888.8 1147.21,-888.8"/>
<text text-anchor="start" x="1154.21" y="-901" font-family="Arial" font-size="14.00">updated_by </text>
<text text-anchor="start" x="1231.28" y="-901" font-family="Arial" font-size="14.00" fill="#666666">[bigint]</text>
<polygon fill="none" stroke="black" points="1147.21,-858 1147.21,-888.8 1436.17,-888.8 1436.17,-858 1147.21,-858"/>
<text text-anchor="start" x="1154.21" y="-870.2" font-family="Arial" font-size="14.00">offered_item_id </text>
<text text-anchor="start" x="1254.6" y="-870.2" font-family="Arial" font-size="14.00" fill="#666666">[bigint]</text>
<polygon fill="none" stroke="black" points="1147.21,-827.2 1147.21,-858 1436.17,-858 1436.17,-827.2 1147.21,-827.2"/>
<text text-anchor="start" x="1154.21" y="-839.4" font-family="Arial" font-size="14.00">unit_id </text>
<text text-anchor="start" x="1199.35" y="-839.4" font-family="Arial" font-size="14.00" fill="#666666">[smallint]</text>
</g>
<!-- public.invoice_items&#45;&gt;public.quotation_items -->
<g id="edge2" class="edge">
<title>public.invoice_items:quotation_item_id&#45;&gt;public.quotation_items:id</title>
<path fill="none" stroke="black" d="M1136.02,-965.12C1068.74,-955.6 1104.35,-848.18 1147.21,-784 1170.1,-749.72 1209.7,-782.22 1232.67,-748 1256.75,-712.13 1276.88,-650.8 1233.67,-650.8"/>
<polygon fill="black" stroke="black" points="1135.9,-965.11 1145.58,-970.27 1141.22,-965.47 1145.54,-965.76 1145.54,-965.76 1145.54,-965.76 1141.22,-965.47 1146.18,-961.29 1135.9,-965.11"/>
</g>
</g>
</svg>
